<svg width="24" height="24" viewBox="0 0 24 24" fill="none" xmlns="http://www.w3.org/2000/svg">
<path d="M5.01168 0.579712C2.66199 0.579712 0.77002 2.4801 0.77002 4.84024V19.6525C0.77002 22.0127 2.66199 23.9131 5.01168 23.9131H13.0043V14.7912H10.6029V11.507H13.0043V8.70118C13.0043 6.49677 14.4231 4.47274 17.6916 4.47274C19.015 4.47274 19.9936 4.60035 19.9936 4.60035L19.9166 7.66724C19.9166 7.66724 18.9186 7.65776 17.8296 7.65776C16.6509 7.65776 16.4619 8.20325 16.4619 9.10882V11.507H20.0103L19.8556 14.7912H16.4619V23.9131H19.7584C22.1081 23.9131 24 22.0127 24 19.6526V4.84026C24 2.48012 22.1081 0.579735 19.7584 0.579735H5.01166L5.01168 0.579712Z" fill="white"/>
</svg>
